<svg width="24" height="24" viewBox="0 0 24 24" fill="none" xmlns="http://www.w3.org/2000/svg">
<path d="M21.7687 9.3468V4.8468C21.7687 4.43259 21.433 4.0968 21.0187 4.0968C20.6045 4.0968 20.2687 4.43259 20.2687 4.8468V8.5968H16.5187C16.1045 8.5968 15.7687 8.93259 15.7687 9.3468C15.7687 9.76102 16.1045 10.0968 16.5187 10.0968H21.0187C21.433 10.0968 21.7687 9.76102 21.7687 9.3468Z" fill="#1C1C1C"/>
<path d="M20.4892 9.87803C20.6297 10.0182 20.8202 10.0968 21.0187 10.0968L21.0198 10.0969C21.2187 10.0966 21.4094 10.0173 21.5498 9.87646C21.69 9.73588 21.7687 9.54533 21.7687 9.3468L21.7687 9.34581C21.7684 9.1469 21.6891 8.95625 21.5482 8.8158L18.3607 5.63768C17.0971 4.37217 15.4435 3.68654 15.4435 3.68654C13.79 3.00092 12 3.00092 12 3.00092C10.2099 3.00092 8.55636 3.68654 8.55636 3.68654C6.90282 4.37217 5.63798 5.63885 5.63798 5.63885C5.49757 5.77947 5.4187 5.97007 5.4187 6.16879C5.41885 6.3677 5.498 6.55896 5.63876 6.69951C5.77938 6.83992 5.96998 6.91879 6.1687 6.91879C6.36761 6.91865 6.55887 6.83949 6.69942 6.69873C7.75323 5.64339 9.13089 5.07215 9.13089 5.07215C10.5086 4.50092 12 4.50092 12 4.50092C13.4913 4.50092 14.869 5.07215 14.869 5.07215C16.2467 5.64339 17.3017 6.6999 17.3017 6.6999L20.4892 9.87803Z" fill="#1C1C1C"/>
<path d="M2.2312 14.6532V19.1532C2.2312 19.5674 2.56699 19.9032 2.9812 19.9032C3.39541 19.9032 3.7312 19.5674 3.7312 19.1532V15.4032H7.4812C7.89541 15.4032 8.2312 15.0674 8.2312 14.6532C8.2312 14.239 7.89541 13.9032 7.4812 13.9032H2.9812C2.56699 13.9032 2.2312 14.239 2.2312 14.6532Z" fill="#1C1C1C"/>
<path d="M6.69825 17.3002L3.51075 14.1221C3.37016 13.9819 3.17973 13.9032 2.9812 13.9032L2.9801 13.9032C2.78118 13.9035 2.59054 13.9828 2.45009 14.1236C2.30992 14.2642 2.2312 14.4547 2.2312 14.6532L2.2312 14.6543C2.23149 14.8532 2.31079 15.0439 2.45165 15.1843L5.63915 18.3624C6.90282 19.6279 8.55636 20.3136 8.55636 20.3136C10.2099 20.9992 12 20.9992 12 20.9992C13.79 20.9992 15.4435 20.3136 15.4435 20.3136C17.0971 19.6279 18.3619 18.3613 18.3619 18.3613C18.5023 18.2206 18.5812 18.03 18.5812 17.8313C18.5811 17.6324 18.5019 17.4412 18.3611 17.3006C18.2205 17.1602 18.0299 17.0813 17.8312 17.0813C17.6323 17.0815 17.441 17.1606 17.3005 17.3014C16.2467 18.3567 14.869 18.928 14.869 18.928C13.4913 19.4992 12 19.4992 12 19.4992C10.5086 19.4992 9.13089 18.928 9.13089 18.928C7.75323 18.3567 6.69825 17.3002 6.69825 17.3002Z" fill="#1C1C1C"/>
</svg>
