<svg width="24" height="24" viewBox="0 0 24 24" fill="none" xmlns="http://www.w3.org/2000/svg">
<path d="M12.75 12V3C12.75 2.58579 12.4142 2.25 12 2.25C11.5858 2.25 11.25 2.58579 11.25 3V12C11.25 12.4142 11.5858 12.75 12 12.75C12.4142 12.75 12.75 12.4142 12.75 12Z" fill="#1C1C1C"/>
<path d="M3.83482 15.8502C3.66257 15.9497 3.53634 16.1139 3.4849 16.306C3.46796 16.3693 3.45938 16.4345 3.45938 16.5C3.45938 16.5079 3.45951 16.5159 3.45976 16.5238C3.46368 16.6474 3.4981 16.7681 3.55994 16.8751C3.69393 17.1071 3.94149 17.25 4.20938 17.25C4.22103 17.25 4.23268 17.2497 4.24432 17.2492C4.36406 17.2436 4.48072 17.2094 4.58451 17.1494L20.1658 8.14944C20.3977 8.01545 20.5406 7.7679 20.5406 7.5C20.5406 7.48835 20.5404 7.4767 20.5398 7.46506C20.5342 7.34532 20.5 7.22867 20.4401 7.12487C20.3406 6.95263 20.1767 6.82696 19.9846 6.77552C19.9213 6.75858 19.8561 6.75 19.7906 6.75C19.7827 6.75 19.7748 6.75013 19.7668 6.75038C19.6433 6.7543 19.5226 6.78871 19.4155 6.85056L3.83482 15.8502Z" fill="#1C1C1C"/>
<path fill-rule="evenodd" clip-rule="evenodd" d="M9.37558 10.9148L3.52558 14.2992C3.3534 14.3988 3.14871 14.4259 2.95653 14.3746C2.76435 14.3233 2.60043 14.1977 2.50082 14.0256C2.45833 13.9521 2.42862 13.872 2.41293 13.7886C2.41293 13.7886 2.24586 12.9004 2.25002 11.9965C2.25002 11.9965 2.24803 8.90086 4.03773 6.37012C4.03773 6.37012 5.82742 3.83939 8.75053 2.80833C8.93811 2.74217 9.1443 2.75323 9.32373 2.83909C9.50316 2.92494 9.64113 3.07856 9.7073 3.26615C9.73557 3.34629 9.75001 3.43065 9.75001 3.51563V10.2656C9.75001 10.5333 9.60731 10.7808 9.37558 10.9148ZM3.75946 12.4309L8.25001 9.83305V4.64679C8.25001 4.64679 6.45752 5.54628 5.26243 7.23621C5.26243 7.23621 3.74834 9.37723 3.75 12.0035C3.75 12.0035 3.74901 12.2177 3.75946 12.4309Z" fill="#1C1C1C"/>
<path d="M7.91918 19.1706C6.00134 18.0794 4.88429 16.1766 4.88429 16.1766C4.78359 16.005 4.61887 15.8805 4.42637 15.8304C4.3647 15.8144 4.30123 15.8063 4.2375 15.8063C4.22781 15.8063 4.21812 15.8064 4.20844 15.8068C4.08489 15.8116 3.96444 15.8469 3.85781 15.9095C3.62841 16.0441 3.4875 16.2902 3.4875 16.5563L3.4875 16.5584C3.48789 16.6912 3.5235 16.8215 3.59071 16.9359C4.91086 19.1848 7.17739 20.4744 7.17739 20.4744C9.44392 21.7639 12.0516 21.7499 12.0516 21.7499C14.6593 21.7358 16.9117 20.4218 16.9117 20.4218C19.1642 19.1079 20.46 16.8449 20.46 16.8449C21.7558 14.5819 21.7489 11.9742 21.7489 11.9742C21.7421 9.36655 20.4343 7.11046 20.4343 7.11046C19.1266 4.85437 16.8672 3.55233 16.8672 3.55233C14.6078 2.2503 12 2.25 12 2.25C11.9542 2.25 11.9086 2.25419 11.8636 2.26251C11.5081 2.32826 11.25 2.63842 11.25 3C11.25 3.01204 11.2503 3.02397 11.2509 3.03594C11.2598 3.22218 11.3378 3.39841 11.4696 3.53027C11.6102 3.67094 11.801 3.74998 11.9999 3.75C14.2062 3.75034 16.1182 4.85197 16.1182 4.85197C18.03 5.9537 19.1366 7.8627 19.1366 7.8627C20.2431 9.7717 20.249 11.9782 20.249 11.9782C20.2548 14.1847 19.1583 16.0995 19.1583 16.0995C18.0619 18.0144 16.1559 19.1262 16.1559 19.1262C14.25 20.238 12.0435 20.2499 12.0435 20.2499C9.83701 20.2618 7.91918 19.1706 7.91918 19.1706Z" fill="#1C1C1C"/>
</svg>
