<svg width="24" height="24" viewBox="0 0 24 24" fill="none" xmlns="http://www.w3.org/2000/svg">
<path d="M3 12.75H7.5C7.91421 12.75 8.25 12.4142 8.25 12C8.25 11.5858 7.91421 11.25 7.5 11.25H3C2.37868 11.25 1.93934 11.6893 1.93934 11.6893C1.5 12.1287 1.5 12.75 1.5 12.75V18.75C1.5 19.3713 1.93934 19.8107 1.93934 19.8107C2.37868 20.25 3 20.25 3 20.25H21C21.6213 20.25 22.0607 19.8107 22.0607 19.8107C22.5 19.3713 22.5 18.75 22.5 18.75V12.75C22.5 12.1287 22.0607 11.6893 22.0607 11.6893C21.6213 11.25 21 11.25 21 11.25H16.5C16.0858 11.25 15.75 11.5858 15.75 12C15.75 12.4142 16.0858 12.75 16.5 12.75H21V18.75H3V12.75Z" fill="#1C1C1C"/>
<path d="M11.25 2.25V12C11.25 12.4142 11.5858 12.75 12 12.75C12.4142 12.75 12.75 12.4142 12.75 12V2.25C12.75 1.83579 12.4142 1.5 12 1.5C11.5858 1.5 11.25 1.83579 11.25 2.25Z" fill="#1C1C1C"/>
<path d="M17.03 8.03061C17.1707 7.88996 17.25 7.69891 17.25 7.5C17.25 7.30109 17.171 7.11032 17.0303 6.96967C16.8897 6.82902 16.6989 6.75 16.5 6.75C16.3011 6.75 16.1103 6.82902 15.9697 6.96967L12 10.9393L8.03042 6.96976C7.88968 6.82902 7.69891 6.75 7.5 6.75C7.30109 6.75 7.11032 6.82902 6.96967 6.96967C6.82902 7.11032 6.75 7.30109 6.75 7.5C6.75 7.69891 6.82902 7.88968 6.96967 8.03033L11.4697 12.5303C11.6103 12.671 11.8011 12.75 12 12.75C12.1989 12.75 12.3897 12.671 12.5303 12.5303L17.03 8.03061Z" fill="#1C1C1C"/>
<path d="M18.75 15.75C18.75 16.3713 18.2463 16.875 17.625 16.875C17.0037 16.875 16.5 16.3713 16.5 15.75C16.5 15.1287 17.0037 14.625 17.625 14.625C18.2463 14.625 18.75 15.1287 18.75 15.75Z" fill="#1C1C1C"/>
</svg>
