<svg width="24" height="24" viewBox="0 0 24 24" fill="none" xmlns="http://www.w3.org/2000/svg">
<path d="M9.1819 4.47761C9.19009 4.47556 9.19825 4.47337 9.20637 4.47105C9.52818 4.37894 9.75 4.08473 9.75 3.75C9.75 3.68868 9.74248 3.62759 9.72761 3.5681C9.72556 3.55991 9.72337 3.55175 9.72105 3.54363C9.66873 3.36082 9.54893 3.20471 9.38588 3.10688C9.37232 3.09875 9.35851 3.09105 9.34447 3.08379C9.23799 3.02873 9.11987 3 9 3C8.93868 3 8.87759 3.00752 8.8181 3.02239L2.8181 4.52239C2.48422 4.60586 2.25 4.90585 2.25 5.25L2.25 18.75C2.25 19.1642 2.58579 19.5 3 19.5C3.06132 19.5 3.12241 19.4925 3.1819 19.4776L9.1819 17.9776C9.51578 17.8941 9.75 17.5942 9.75 17.25L9.74992 17.2392C9.74909 17.1815 9.7416 17.1241 9.72761 17.0681C9.67936 16.8751 9.55644 16.7092 9.38587 16.6069C9.26931 16.5369 9.13593 16.5 9 16.5H8.99911C8.93809 16.5001 8.8773 16.5076 8.8181 16.5224L3.75 17.7894V5.83558L9.1819 4.47761Z" fill="#1C1C1C"/>
<path fill-rule="evenodd" clip-rule="evenodd" d="M15.75 6.75V20.25C15.75 20.6642 15.4142 21 15 21C14.8836 21 14.7687 20.9729 14.6646 20.9208L8.66459 17.9208C8.4105 17.7938 8.25 17.5341 8.25 17.25V3.75C8.25 3.33579 8.58579 3 9 3C9.11643 3 9.23127 3.02711 9.33541 3.07918L15.3354 6.07918C15.5895 6.20622 15.75 6.46592 15.75 6.75ZM14.25 19.0365V7.21353L9.75 4.96353V16.7865L14.25 19.0365Z" fill="#1C1C1C"/>
<path d="M20.25 18.1644L14.8185 19.5223C14.4846 19.6058 14.25 19.9058 14.25 20.25L14.2501 20.2608C14.2509 20.3185 14.2584 20.3759 14.2724 20.4319C14.3206 20.6249 14.4436 20.7908 14.6141 20.8931C14.7307 20.9631 14.8641 21 15 21H15.0009C15.0619 20.9999 15.1227 20.9924 15.1819 20.9776L21.1819 19.4776C21.5158 19.3941 21.75 19.0942 21.75 18.75V5.25C21.75 4.83579 21.4142 4.5 21 4.5C20.9387 4.5 20.8776 4.50752 20.8181 4.52239L14.8182 6.02236C14.4842 6.10586 14.25 6.40585 14.25 6.75L14.2501 6.76083C14.2509 6.81852 14.2584 6.87593 14.2724 6.9319C14.3559 7.26578 14.6558 7.5 15 7.5L15.0108 7.49992C15.0685 7.49909 15.1259 7.4916 15.1819 7.47761L20.25 6.21058V18.1644Z" fill="#1C1C1C"/>
</svg>
