<svg width="12" height="8" viewBox="0 0 12 8" fill="none" xmlns="http://www.w3.org/2000/svg">
<path d="M1.35374 3.64663L1.35355 3.64645C1.25979 3.55268 1.13261 3.5 1 3.5C0.867392 3.5 0.740215 3.55268 0.646447 3.64645C0.552678 3.74021 0.5 3.86739 0.5 4C0.5 4.00801 0.500192 4.01602 0.500577 4.02402C0.506548 4.14818 0.558552 4.26566 0.646447 4.35355L0.646634 4.35374L4.14645 7.85355C4.34171 8.04881 4.65829 8.04881 4.85355 7.85355L11.8536 0.853553C11.9473 0.759785 12 0.632608 12 0.5C12 0.367392 11.9473 0.240215 11.8536 0.146447C11.7598 0.0526785 11.6326 0 11.5 0C11.3674 0 11.2402 0.0526785 11.1464 0.146447L4.5 6.79289L1.35374 3.64663Z" fill="#1C1C1C"/>
</svg>
